HIERARCHY
ROOT Hips
{
	OFFSET 0.000000 0.000000 0.000000 
	CHANNELS 6 Xposition Yposition Zposition Zrotation Yrotation Xrotation
	JOINT LeftUpLeg
	{
		OFFSET 1.363060 -1.794630 0.839290 
		CHANNELS 3 Zrotation Yrotation Xrotation
		JOINT LeftLeg
		{
			OFFSET 2.448110 -6.726130 0.000000 
			CHANNELS 3 Zrotation Yrotation Xrotation
			JOINT LeftFoot
			{
				OFFSET 2.562200 -7.039590 0.000000 
				CHANNELS 3 Zrotation Yrotation Xrotation
				JOINT LeftToeBase
				{
					OFFSET 0.157640 -0.433110 2.322550 
					CHANNELS 3 Zrotation Yrotation Xrotation
					End Site
					{
						OFFSET 0.000000 0.000000 0.000000 
					}
				}
			}
		}
	}
	JOINT RightUpLeg
	{
		OFFSET -1.305520 -1.794630 0.839290 
		CHANNELS 3 Zrotation Yrotation Xrotation
		JOINT RightLeg
		{
			OFFSET -2.542530 -6.985550 0.000000 
			CHANNELS 3 Zrotation Yrotation Xrotation
			JOINT RightFoot
			{
				OFFSET -2.568260 -7.056230 0.000000 
				CHANNELS 3 Zrotation Yrotation Xrotation
				JOINT RightToeBase
				{
					OFFSET -0.164730 -0.452590 2.363150 
					CHANNELS 3 Zrotation Yrotation Xrotation
					End Site
					{
						OFFSET 0.000000 0.000000 0.000000 
					}
				}
			}
		}
	}
	JOINT Spine
	{
		OFFSET 0.028270 2.035590 -0.193380 
		CHANNELS 3 Zrotation Yrotation Xrotation
		JOINT Spine1
		{
			OFFSET 0.056720 2.048850 -0.042750 
			CHANNELS 3 Zrotation Yrotation Xrotation
			JOINT Neck1
			{
				OFFSET -0.054170 1.746240 0.172020 
				CHANNELS 3 Zrotation Yrotation Xrotation
				JOINT Head
				{
					OFFSET 0.104070 1.761360 -0.123970 
					CHANNELS 3 Zrotation Yrotation Xrotation
					End Site
					{
						OFFSET 0.000000 0.000000 0.000000 
					}
				}
			}
			JOINT LeftArm
			{
				OFFSET 3.362410 1.200890 -0.311210 
				CHANNELS 3 Zrotation Yrotation Xrotation
				JOINT LeftForeArm
				{
					OFFSET 4.983000 -0.000000 -0.000000 
					CHANNELS 3 Zrotation Yrotation Xrotation
					JOINT LeftHand
					{
						OFFSET 3.483560 -0.000000 -0.000000 
						CHANNELS 3 Zrotation Yrotation Xrotation
						JOINT LeftHandIndex1
						{
							OFFSET 0.715260 -0.000000 -0.000000 
							CHANNELS 3 Zrotation Yrotation Xrotation
							End Site
							{
								OFFSET 0.000000 0.000000 0.000000 
							}
						}
					}
				}
			}
			JOINT RightArm
			{
				OFFSET -3.136600 1.374050 -0.404650 
				CHANNELS 3 Zrotation Yrotation Xrotation
				JOINT RightForeArm
				{
					OFFSET -5.241900 -0.000000 -0.000000 
					CHANNELS 3 Zrotation Yrotation Xrotation
					JOINT RightHand
					{
						OFFSET -3.444170 -0.000000 -0.000000 
						CHANNELS 3 Zrotation Yrotation Xrotation
						JOINT RightHandIndex1
						{
							OFFSET -0.622530 -0.000000 -0.000000 
							CHANNELS 3 Zrotation Yrotation Xrotation
							End Site
							{
								OFFSET 0.000000 0.000000 0.000000 
							}
						}
					}
				}
			}
		}
	}
}
MOTION
Frames: 13
Frame Time: 0.041667
-2.093256 14.981301 5.782575 -9.276263 -21.429061 17.710911 -10.836546 4.151702 1.897992 5.544650 12.809109 44.936739 2.007046 1.655020 -25.986095 3.917000 -12.049100 -35.906000 25.075347 33.925569 -54.596027 -4.854023 -22.863521 53.343740 -0.211864 14.154542 -6.365692 -0.006900 -0.537100 1.475900 1.313179 -5.849998 -4.169750 -2.357186 -2.814323 -6.080519 8.832504 12.966792 14.236645 -3.660300 8.938400 11.671800 -47.022816 -49.305751 4.450905 46.476170 -45.813480 -15.630073 -0.063709 5.248609 1.796527 -7.125000 0.000000 0.000000 84.252229 43.577722 54.037572 -150.065470 30.939250 -110.301691 -0.712832 -0.800847 -37.928942 7.125000 0.000000 0.000000 
-2.091120 14.955875 5.763666 -9.523900 -21.413174 17.478350 -10.042184 4.404728 1.362269 5.866424 13.093030 46.163689 2.028355 0.481941 -25.467701 3.980500 -12.134400 -36.208900 25.693013 33.623119 -54.306045 -4.895352 -22.877597 53.490150 -0.193943 14.484694 -6.257574 -0.009600 -0.633200 1.740000 1.421833 -6.358307 -4.163105 -2.029096 -3.020854 -6.250127 8.593924 13.471040 14.085187 -3.791900 9.113600 11.619600 -45.458743 -50.870683 0.047864 39.654480 -41.669463 -11.732505 0.335346 5.429137 5.779443 -7.125000 0.000000 0.000000 83.933696 44.067644 54.310586 -149.918879 31.007887 -110.226842 -0.719375 -0.795673 -37.690508 7.125000 0.000000 0.000000 
-2.086740 14.930770 5.748282 -9.762050 -21.337600 17.303646 -9.262599 4.620334 0.832846 6.159984 13.342542 47.258893 2.050074 -0.698323 -24.975953 4.053800 -12.231700 -36.556500 26.241318 33.282100 -54.104895 -4.945641 -22.900603 53.662091 -0.179434 14.790984 -6.187617 -0.011700 -0.698900 1.920700 1.523157 -6.774865 -4.157179 -1.741647 -3.190965 -6.368832 8.318847 13.886509 13.902013 -3.930900 9.235600 11.535700 -44.206946 -52.016891 -4.379423 35.200201 -38.486099 -9.472809 0.713816 5.460018 9.005659 -7.125000 0.000000 0.000000 83.548166 44.627859 54.496038 -149.791201 31.048440 -110.167603 -0.729207 -0.791622 -37.496082 7.125000 0.000000 0.000000 
-2.081078 14.914959 5.738561 -9.963217 -21.248463 17.194432 -8.564338 4.825748 0.318279 6.414438 13.555826 48.193005 2.067726 -1.832859 -24.512139 4.134400 -12.337100 -36.935300 26.688906 32.943545 -53.968386 -5.001730 -22.929070 53.846094 -0.170168 15.070720 -6.182885 -0.012900 -0.732000 2.011700 1.612342 -7.114172 -4.148896 -1.510901 -3.339545 -6.416599 8.013083 14.232133 13.704344 -4.071600 9.317800 11.448600 -43.258963 -52.504911 -8.240521 32.848394 -36.710825 -8.368502 0.973289 5.390466 10.750680 -7.125000 0.000000 0.000000 83.162285 45.257181 54.673855 -149.695090 31.055584 -110.130224 -0.741672 -0.787119 -37.300824 7.125000 0.000000 0.000000 
-2.070394 14.890174 5.732471 -10.089765 -21.180827 17.154357 -8.001159 5.029708 -0.211338 6.639519 13.751579 49.020675 2.085501 -2.903651 -24.114282 4.215300 -12.441500 -37.312400 26.911917 32.648887 -54.044762 -5.087510 -22.988678 54.116633 -0.165292 15.320833 -6.203631 -0.012900 -0.733300 2.015100 1.683001 -7.368887 -4.142819 -1.342851 -3.463846 -6.421565 7.686231 14.498348 13.506428 -4.209900 9.359700 11.367800 -42.782601 -52.270507 -10.836553 32.418675 -36.473484 -8.155892 1.047636 5.294619 10.568360 -7.125000 0.000000 0.000000 82.790111 45.928974 54.833841 -149.618989 31.039556 -110.106742 -0.756177 -0.782971 -37.114169 7.125000 0.000000 0.000000 
-2.056506 14.867205 5.731082 -10.100205 -21.137766 17.167345 -7.631870 5.233850 -0.746105 6.825918 13.927409 49.717596 2.098822 -3.881512 -23.763354 4.291300 -12.538300 -37.663900 26.889569 32.405948 -54.275236 -5.194939 -23.068730 54.442846 -0.167039 15.525678 -6.272183 -0.011800 -0.702200 1.929700 1.727825 -7.533560 -4.139961 -1.257644 -3.560113 -6.400922 7.353408 14.673526 13.322356 -4.340100 9.360700 11.304300 -42.833184 -51.434039 -11.915034 33.662131 -37.621627 -8.705916 0.930813 5.222375 8.484128 -7.125000 0.000000 0.000000 82.454977 46.597193 54.957532 -149.564252 30.999480 -110.098285 -0.769279 -0.780300 -36.944036 7.125000 0.000000 0.000000 
-2.040161 14.846907 5.733860 -9.996102 -21.109015 17.225738 -7.448953 5.430838 -1.300181 6.982673 14.092881 50.321771 2.109060 -4.762240 -23.464062 4.358100 -12.622300 -37.970500 26.619945 32.236585 -54.652194 -5.328973 -23.171662 54.838491 -0.177604 15.663561 -6.399220 -0.010200 -0.650900 1.788800 1.743320 -7.594363 -4.139788 -1.275576 -3.618081 -6.373532 7.027391 14.743827 13.155290 -4.462900 9.318000 11.253100 -43.334437 -50.216829 -11.691949 36.317949 -39.830862 -9.988248 0.690614 5.162250 4.908553 -7.125000 0.000000 0.000000 82.169673 47.207692 55.018116 -149.542103 30.927064 -110.112155 -0.780406 -0.778456 -36.817329 7.125000 0.000000 0.000000 
-2.022748 14.829173 5.739095 -9.801814 -21.062971 17.320395 -7.402903 5.619673 -1.873833 7.109185 14.245303 50.827549 2.113558 -5.564207 -23.184316 4.409200 -12.685900 -38.203900 26.143209 32.150616 -55.136222 -5.476356 -23.286410 55.263988 -0.197182 15.692266 -6.567164 -0.008200 -0.585200 1.608200 1.727611 -7.539568 -4.138293 -1.412517 -3.629009 -6.336074 6.733435 14.688255 13.008409 -4.564300 9.222900 11.203500 -44.280181 -48.889986 -10.634716 40.230857 -42.742341 -12.066066 0.396257 5.077936 0.715858 -7.125000 0.000000 0.000000 81.933429 47.734976 54.970267 -149.548435 30.826537 -110.146381 -0.788232 -0.777079 -36.751575 7.125000 0.000000 0.000000 
-2.005868 14.814324 5.746253 -9.545895 -20.966216 17.431771 -7.435697 5.789543 -2.463380 7.213535 14.386718 51.258642 2.112336 -6.304432 -22.910780 4.449100 -12.735200 -38.385100 25.513945 32.148183 -55.676290 -5.632224 -23.406774 55.705315 -0.227646 15.577264 -6.787180 -0.006000 -0.501200 1.377100 1.689039 -7.382772 -4.137038 -1.635188 -3.593714 -6.300986 6.489600 14.511435 12.889456 -4.635600 9.079200 11.155100 -45.591799 -47.614518 -9.071397 45.317299 -45.963870 -15.050795 0.105225 4.957902 -3.414455 -7.125000 0.000000 0.000000 81.750429 48.154119 54.828307 -149.581661 30.704590 -110.197810 -0.793228 -0.776561 -36.775119 7.125000 0.000000 0.000000 
-1.991125 14.802465 5.754158 -9.263260 -20.779543 17.552011 -7.483520 5.915285 -3.074651 7.303695 14.520923 51.639801 2.104434 -7.014971 -22.619782 4.476800 -12.769200 -38.510600 24.790105 32.224349 -56.236838 -5.792599 -23.528457 56.152571 -0.269712 15.285417 -7.064117 -0.003800 -0.399100 1.096500 1.633071 -7.133070 -4.131694 -1.938034 -3.514363 -6.243405 6.302139 14.217776 12.788233 -4.678300 8.889100 11.093800 -47.122475 -46.504097 -7.141914 51.557811 -49.091027 -19.063575 -0.166031 4.807873 -6.994225 -7.125000 0.000000 0.000000 81.610358 48.469897 54.575723 -149.627961 30.578432 -110.256849 -0.794998 -0.775082 -36.898672 7.125000 0.000000 0.000000 
-1.979694 14.793492 5.762384 -8.948735 -20.463554 17.660860 -7.528421 5.963887 -3.710095 7.384160 14.652045 51.988470 2.089079 -7.709453 -22.298000 4.495100 -12.791600 -38.593200 23.987802 32.347300 -56.792772 -5.958699 -23.648938 56.606677 -0.323921 14.798418 -7.413018 -0.001800 -0.273200 0.750700 1.567634 -6.817301 -4.122969 -2.278069 -3.400034 -6.147103 6.177082 13.817988 12.702082 -4.685300 8.655400 11.019600 -48.815975 -45.603389 -4.852764 59.009548 -51.713718 -24.245781 -0.414547 4.628223 -9.728760 -7.125000 0.000000 0.000000 81.486932 48.704450 54.209229 -149.668782 30.466885 -110.309353 -0.795001 -0.775829 -37.124075 7.125000 0.000000 0.000000 
-1.972323 14.787616 5.770503 -8.585987 -19.978800 17.742843 -7.572249 5.891615 -4.376443 7.456706 14.784765 52.316842 2.064934 -8.393463 -21.933598 4.506100 -12.805000 -38.643000 23.103724 32.477868 -57.330888 -6.134023 -23.768120 57.075875 -0.388483 14.118797 -7.838827 -0.000400 -0.121000 0.332500 1.498196 -6.463573 -4.110021 -2.629450 -3.262837 -5.987258 6.103005 13.324328 12.619625 -4.664600 8.381700 10.929400 -50.569272 -44.915213 -2.070415 67.608779 -53.379698 -30.682943 -0.639436 4.423379 -11.709019 -7.125000 0.000000 0.000000 81.356108 48.895273 53.719184 -149.684023 30.388850 -110.341382 -0.794072 -0.780927 -37.437382 7.125000 0.000000 0.000000 
-1.969225 14.784625 5.777341 -8.160525 -19.296954 17.789474 -7.622726 5.659840 -5.085211 7.522540 14.924414 52.633670 2.030551 -9.063140 -21.515422 4.511900 -12.812100 -38.668900 22.128546 32.583437 -57.847165 -6.322815 -23.886737 57.569368 -0.460220 13.259907 -8.341948 -0.000100 0.049400 -0.135800 1.428211 -6.092487 -4.092092 -2.972623 -3.113117 -5.746626 6.059191 12.745259 12.528327 -4.630400 8.069400 10.821600 -52.417297 -44.405394 1.340565 77.055988 -53.708981 -38.417187 -0.798751 4.204670 -13.075916 -7.125000 0.000000 0.000000 81.178505 49.101029 53.073399 -149.645239 30.365976 -110.336136 -0.792449 -0.789842 -37.832995 7.125000 0.000000 0.000000 
